<svg width="75" height="86" viewBox="0 0 75 86" fill="none" xmlns="http://www.w3.org/2000/svg">
<path d="M39.5099 0C40.8023 0.27362 42.1304 0.44046 43.385 0.836429C52.6547 3.75059 58.3207 9.97043 59.8044 19.5894C61.6886 31.8088 53.262 43.1585 41.0292 45.254C28.7497 47.3584 16.9463 38.914 14.853 26.5278C12.7619 14.1504 21.0817 2.45368 33.4947 0.315886C34.0041 0.226904 34.5091 0.106778 35.0163 0C36.5134 0 38.0105 0 39.5099 0ZM57.5198 22.8039C57.5354 11.6121 48.4726 2.51374 37.3031 2.50484C26.2071 2.49817 17.0886 11.5966 17.0441 22.7215C16.9997 33.8576 26.1248 42.9805 37.3053 42.9827C48.4815 42.985 57.5043 33.9755 57.5198 22.8039Z" fill="white"/>
<path d="M65.4947 52.5572C65.4947 52.9999 65.4947 53.3269 65.4947 53.6539C65.4947 63.5888 65.4947 73.5214 65.4947 83.4562C65.4947 84.94 65.1766 85.2559 63.6928 85.2559C60.7786 85.2559 57.8645 85.2581 54.9525 85.2537C53.8425 85.2515 53.3731 84.811 53.3709 83.7032C53.362 77.6257 53.362 71.5482 53.3709 65.473C53.3731 64.4497 53.8647 63.9002 54.6967 63.9202C55.5109 63.9403 55.9514 64.4853 55.9536 65.5442C55.9602 70.9276 55.9558 76.311 55.958 81.6944C55.958 82.0214 55.958 82.3462 55.958 82.7155C58.3272 82.7155 60.6162 82.7155 62.9965 82.7155C62.9965 82.3662 62.9965 82.0414 62.9965 81.7189C62.9965 71.784 62.9965 61.8514 62.9965 51.9166C62.9965 50.3616 63.2345 50.0947 64.9252 49.9078C63.0699 47.9346 61.2792 46.0282 59.455 44.0884C57.6264 46.0371 55.8468 47.9302 54.1228 49.7654C54.6656 50.0368 55.3418 50.1725 55.6421 50.5818C55.9425 50.9912 55.938 51.6763 55.9469 52.2414C55.9758 54.6283 55.9603 57.013 55.958 59.4C55.958 59.5935 55.9669 59.7893 55.9536 59.9828C55.9002 60.8615 55.3863 61.4332 54.6589 61.4288C53.9292 61.4265 53.3931 60.8504 53.3753 59.9761C53.3509 58.6436 53.3686 57.3133 53.3686 55.9808C53.3686 54.8775 53.3686 53.7741 53.3686 52.5595C52.6368 52.5595 51.9805 52.555 51.3243 52.5595C50.6414 52.5639 50.0496 52.4038 49.7693 51.6986C49.5135 51.0512 49.845 50.5863 50.2632 50.1414C52.9082 47.3362 55.5487 44.5222 58.1959 41.717C59.1703 40.6848 59.7353 40.6804 60.683 41.6859C63.328 44.4933 65.9641 47.3095 68.6157 50.108C69.094 50.613 69.3921 51.1424 69.0829 51.8187C68.7848 52.4749 68.1708 52.5595 67.5324 52.5572C66.8939 52.555 66.2577 52.5572 65.4947 52.5572Z" fill="white"/>
<path d="M31.2196 60.4832C30.4277 60.4832 29.7403 60.4698 29.0529 60.4876C28.4167 60.5032 27.9073 60.3275 27.6359 59.7002C27.3756 59.0973 27.6248 58.6324 28.0296 58.2008C30.748 55.3133 33.4598 52.4214 36.1848 49.5384C36.9834 48.6931 37.6441 48.702 38.4494 49.554C41.1144 52.3769 43.7661 55.2132 46.4333 58.034C46.9027 58.53 47.2431 59.0506 46.9583 59.7402C46.6625 60.4565 46.0173 60.5054 45.35 60.4876C44.7182 60.4721 44.0864 60.4832 43.3501 60.4832C43.3501 60.8858 43.3501 61.2084 43.3501 61.531C43.3501 68.852 43.3501 76.1729 43.3501 83.4962C43.3501 84.9154 43.0097 85.2558 41.5949 85.2558C38.7097 85.2558 35.8267 85.258 32.9414 85.2558C31.6334 85.2558 31.2241 84.8442 31.2241 83.5051C31.2219 76.1841 31.2219 68.8631 31.2219 61.5399C31.2196 61.2151 31.2196 60.8925 31.2196 60.4832ZM40.843 82.7265C40.843 82.0814 40.843 81.5052 40.843 80.9268C40.843 73.7971 40.8408 66.6674 40.8453 59.5378C40.8453 58.4032 41.2368 58.0073 42.3824 57.9539C42.4803 57.9494 42.5782 57.9227 42.7962 57.8849C40.9276 55.9006 39.1301 53.9942 37.3016 52.0522C35.453 54.0231 33.6622 55.9318 31.8091 57.9072C33.4976 58.0362 33.809 58.3699 33.809 59.9293C33.809 67.1969 33.809 74.4667 33.809 81.7343C33.809 82.0547 33.809 82.3772 33.809 82.7287C36.1893 82.7265 38.4561 82.7265 40.843 82.7265Z" fill="white"/>
<path d="M21.2028 69.1011C21.2028 69.506 21.2028 69.8063 21.2028 70.1066C21.2028 74.6002 21.205 79.096 21.2028 83.5896C21.2028 84.8887 20.8291 85.2535 19.5188 85.2558C16.578 85.258 13.6371 85.258 10.6963 85.2558C9.53728 85.2535 9.08792 84.8175 9.07903 83.6563C9.06568 82.1036 9.0679 80.5486 9.07903 78.9959C9.0857 77.957 9.54396 77.4053 10.3648 77.4031C11.1879 77.4009 11.6506 77.9503 11.6617 78.987C11.6751 80.206 11.664 81.4251 11.664 82.702C13.9975 82.702 16.2866 82.702 18.698 82.702C18.698 82.4306 18.698 82.1392 18.698 81.8478C18.698 77.4365 18.698 73.0252 18.698 68.6139C18.698 66.8988 18.8492 66.7253 20.6556 66.5117C18.8092 64.543 17.0207 62.6388 15.1654 60.6611C13.3257 62.6165 11.5349 64.5185 9.77753 66.3871C10.3426 66.6163 11.0166 66.6808 11.2702 67.0412C11.5839 67.4861 11.6284 68.1734 11.6484 68.7607C11.6951 70.2578 11.6706 71.7572 11.6617 73.2543C11.6551 74.2687 11.1768 74.8849 10.4071 74.9116C9.60847 74.9383 9.08347 74.2932 9.0768 73.2476C9.0679 71.8951 9.07458 70.5426 9.07458 69.1011C8.25594 69.1011 7.49737 69.1923 6.77662 69.0677C6.32503 68.9899 5.82451 68.6784 5.53532 68.318C5.15714 67.8464 5.41964 67.3148 5.80894 66.901C8.58295 63.949 11.3525 60.9948 14.1376 58.054C14.8072 57.3466 15.5347 57.3555 16.2243 58.0829C18.9716 60.9837 21.7011 63.8979 24.4418 66.8053C24.8845 67.2747 25.0646 67.8086 24.7821 68.3981C24.5152 68.9587 24.0058 69.1322 23.394 69.1078C22.7066 69.0811 22.0148 69.1011 21.2028 69.1011Z" fill="white"/>
<path d="M4.95228 24.4767C3.81554 24.4767 2.68102 24.4811 1.54427 24.4745C0.567695 24.47 0.0182309 24.0229 0.000434509 23.2443C-0.0173619 22.4434 0.51208 21.9674 1.48421 21.9629C3.78439 21.9518 6.08235 21.9518 8.38253 21.9629C9.28793 21.9674 9.84184 22.4457 9.85741 23.1842C9.87521 23.9539 9.29015 24.4655 8.35807 24.4722C7.22355 24.4833 6.0868 24.4744 4.95228 24.4767Z" fill="white"/>
<path d="M69.111 24.4744C67.9475 24.4744 66.7841 24.4833 65.6207 24.4722C64.7397 24.4633 64.1747 23.9627 64.168 23.2197C64.1614 22.4812 64.7219 21.9695 65.6073 21.9651C67.9342 21.9517 70.2611 21.9517 72.5879 21.9651C73.5067 21.9695 74.0228 22.4389 74.025 23.2086C74.0295 23.9694 73.4867 24.4633 72.5991 24.4744C71.4379 24.4833 70.2744 24.4744 69.111 24.4744Z" fill="white"/>
<path d="M10.7633 32.772C11.1392 33.119 11.6153 33.3837 11.8177 33.7886C12.0847 34.318 11.9223 34.9543 11.3528 35.2234C10.3584 35.695 9.32622 36.1021 8.27846 36.4358C7.70007 36.6204 7.17953 36.329 6.91703 35.7529C6.65676 35.1856 6.7235 34.5516 7.25739 34.2758C8.32517 33.7219 9.47082 33.3148 10.7633 32.772Z" fill="white"/>
<path d="M67.2485 34.9809C67.2418 36.0798 66.4121 36.6938 65.5489 36.4069C64.6347 36.1021 63.7382 35.7328 62.855 35.3391C62.1654 35.0321 61.983 34.4381 62.1943 33.7441C62.3812 33.1345 63.073 32.7808 63.7537 33.01C64.6947 33.3236 65.6335 33.6729 66.5144 34.1222C66.877 34.3024 67.0883 34.7852 67.2485 34.9809Z" fill="white"/>
<path d="M11.9117 11.9636C11.8983 13.1137 11.0908 13.7054 10.2254 13.4118C9.33785 13.1115 8.46583 12.7556 7.60715 12.3796C6.8864 12.0637 6.61278 11.4075 6.88417 10.749C7.17781 10.0349 7.76954 9.80803 8.4458 10.0238C9.38901 10.3241 10.3278 10.68 11.2087 11.1272C11.5668 11.3074 11.7715 11.7879 11.9117 11.9636Z" fill="white"/>
<path d="M67.2465 11.492C67.0596 11.6899 66.786 12.166 66.3744 12.3818C65.5714 12.8 64.6994 13.0914 63.8407 13.3962C63.1311 13.6475 62.4281 13.325 62.1901 12.6977C61.9409 12.0392 62.2145 11.354 62.9108 11.0493C63.745 10.6844 64.5926 10.3419 65.4535 10.0504C66.3945 9.73233 67.2309 10.2907 67.2465 11.492Z" fill="white"/>
<path d="M37.3293 6.2998C45.5134 6.3354 52.3339 12.2104 53.6241 20.3412C55.0033 29.0325 48.9125 37.4746 40.1789 38.9762C30.9493 40.5645 22.3314 34.3314 21.0122 25.1084C20.5273 21.7204 21.0434 18.4881 22.5538 15.4182C23.0655 14.3794 23.744 14.0212 24.4848 14.3749C25.2389 14.7353 25.3635 15.4738 24.8474 16.5261C22.1134 22.1141 23.2257 28.6899 27.7281 32.8543C31.7746 36.5959 36.5552 37.6815 41.7539 35.9286C46.9193 34.1868 50.076 30.4606 51.0192 25.0617C52.3851 17.2379 46.926 9.94584 39.0711 8.95592C34.9624 8.43982 31.3475 9.57879 28.1953 12.226C27.6703 12.6665 27.0786 13.038 26.4913 12.5552C26.1509 12.2749 25.924 11.6899 25.9129 11.2339C25.904 10.9135 26.2866 10.5153 26.5847 10.2617C29.6791 7.63453 33.2606 6.2998 37.3293 6.2998Z" fill="white"/>
<path d="M35.7098 15.0224C35.7098 14.5552 35.692 14.0569 35.7142 13.5631C35.752 12.7222 36.237 12.1905 36.9533 12.1638C37.6718 12.1371 38.3281 12.6621 38.2546 13.4674C38.1479 14.6575 38.5594 15.2671 39.665 15.7387C40.3124 16.0145 40.8195 16.7508 41.2467 17.3782C41.7027 18.0477 41.4469 18.7952 40.8018 19.1533C40.1789 19.5004 39.516 19.3447 39.0911 18.6551C38.5483 17.7741 37.7652 17.4293 36.7798 17.4872C35.7053 17.5495 34.9734 18.3125 34.8667 19.4336C34.7866 20.2745 35.3383 21.042 36.3059 21.3112C37.0756 21.5247 37.8831 21.6048 38.6528 21.8184C40.9464 22.4546 42.27 24.1052 42.29 26.2897C42.3078 28.4609 41.002 30.2583 38.8397 30.9435C38.3948 31.0836 38.268 31.2927 38.2947 31.7065C38.3147 32.009 38.3147 32.3182 38.2902 32.6208C38.2191 33.4594 37.7163 33.9688 36.9933 33.9622C36.2703 33.9555 35.7743 33.4327 35.7164 32.6008C35.6986 32.3516 35.712 32.1024 35.712 31.8533C35.712 31.6064 35.712 31.3617 35.712 31.0769C34.3194 30.7188 33.1382 30.0981 32.3685 28.888C32.1616 28.5632 31.977 28.2162 31.8502 27.8558C31.601 27.1528 31.9213 26.4654 32.5642 26.2185C33.1827 25.9805 33.9279 26.2118 34.1459 26.8903C34.662 28.4942 36.9333 28.9391 38.2324 28.4876C39.1267 28.1761 39.6472 27.4776 39.6984 26.481C39.7518 25.4444 39.4248 24.8437 38.4638 24.4589C37.9054 24.2364 37.3025 24.1008 36.7064 24.0029C34.1971 23.5869 32.6021 22.2077 32.3685 20.2056C32.0926 17.8876 33.2405 16.0835 35.7098 15.0224Z" fill="white"/>
</svg>
