<svg width="75" height="93" viewBox="0 0 75 93" fill="none" xmlns="http://www.w3.org/2000/svg">
<path d="M0.0290593 30.5159C0.0290593 25.6398 0.0290593 20.7612 0.0290593 15.8851C0.0290593 13.9712 0.465648 13.6565 2.3643 13.8138C11.2281 14.5449 19.6324 13.1615 27.2525 8.27777C30.4482 6.22935 33.2352 3.71135 35.7406 0.873518C36.761 -0.283952 37.4565 -0.294106 38.4566 0.860826C44.5637 7.90464 52.199 12.1918 61.4435 13.5194C64.9311 14.0194 68.4416 14.1184 71.9546 13.8011C73.7442 13.6387 74.1807 14.0245 74.1807 15.8115C74.1807 24.6169 74.1325 33.4197 74.1934 42.2251C74.2569 51.5179 71.6653 60.0263 66.6191 67.7504C59.9484 77.9595 50.841 85.4551 39.9897 90.8744C36.5452 92.5929 37.6164 92.5269 34.182 90.816C26.5874 87.0314 19.7365 82.2036 13.9136 75.9847C7.14902 68.7607 2.45061 60.4325 0.71948 50.6117C0.244816 47.9186 0.130592 45.1417 0.0569809 42.3977C-0.0521665 38.4354 0.0290593 34.4757 0.0290593 30.5159ZM2.69429 16.5425C2.69429 16.9867 2.69429 17.2685 2.69429 17.5477C2.69429 26.0028 2.68413 34.4579 2.70444 42.9156C2.70952 44.4335 2.76028 45.959 2.93797 47.4642C3.98121 56.3483 7.56784 64.1485 13.1699 71.0553C19.4649 78.8149 27.3667 84.5058 36.2736 88.8945C36.8752 89.1915 37.3397 89.1941 37.9438 88.9072C46.7949 84.6987 54.4149 78.8809 60.6795 71.3523C67.7817 62.8159 71.6272 53.0561 71.5282 41.8342C71.4571 33.7903 71.5155 25.7464 71.5155 17.7025C71.5155 17.3395 71.5155 16.974 71.5155 16.5171C57.9787 17.3522 46.3304 13.5498 37.1036 3.35599C27.8312 13.5473 16.259 17.5198 2.69429 16.5425Z" fill="white"/>
<path d="M63.6455 24.566C60.7899 24.0533 58.0333 23.6725 55.3326 23.0532C48.9284 21.5835 43.141 18.7507 37.9197 14.7707C37.3055 14.3011 36.9425 14.2655 36.313 14.7554C29.6474 19.926 22.0908 22.9973 13.7474 24.1523C12.7473 24.2893 11.7371 24.3503 10.6811 24.4493C10.6405 24.6168 10.5593 24.7919 10.5593 24.9671C10.5821 31.5235 10.5111 38.08 10.671 44.6314C10.8258 50.9822 12.9681 56.7594 16.3644 62.0772C21.4359 70.0196 28.5381 75.713 36.6963 80.1956C36.945 80.3327 37.4222 80.2439 37.704 80.0941C43.0471 77.236 47.8242 73.624 52.0404 69.2707C52.3932 68.9078 52.7333 68.5321 53.0963 68.1767C53.7613 67.5295 54.566 67.4685 55.1219 68.0067C55.6905 68.5549 55.6701 69.3291 55.0229 70.0272C51.8449 73.4539 48.3624 76.5354 44.4635 79.1092C42.3821 80.4825 40.2144 81.7313 38.034 82.9446C37.5872 83.1934 36.8003 83.2645 36.3688 83.036C27.269 78.2158 19.4865 71.8903 13.9454 63.0722C9.91201 56.6553 7.8179 49.6699 7.85598 42.0601C7.88644 36.1052 7.86106 30.1503 7.86106 24.198C7.86106 22.1521 8.13012 21.8652 10.1963 21.7586C16.4101 21.4414 22.3218 19.9108 27.7843 16.9612C30.5789 15.4509 33.1629 13.5396 35.7952 11.7425C36.9755 10.9353 37.2674 10.8439 38.369 11.7348C44.7046 16.8648 51.9134 20.0199 59.9523 21.2814C61.4473 21.515 62.9678 21.619 64.4806 21.718C65.8462 21.8069 66.3234 22.2232 66.326 23.5583C66.3336 26.7896 66.326 30.0183 66.3285 33.2496C66.3285 33.9603 66.1661 34.572 65.4274 34.8665C64.5009 35.2371 63.6608 34.6025 63.6481 33.4425C63.6227 30.7823 63.6379 28.1222 63.6379 25.462C63.6455 25.127 63.6455 24.7868 63.6455 24.566Z" fill="white"/>
<path d="M63.9219 55.7086C63.6757 56.3685 63.5386 56.8204 63.3432 57.2443C62.8584 58.3027 62.3811 59.3638 61.8405 60.3918C61.4547 61.1203 60.7693 61.2929 60.0662 60.9248C59.3555 60.5517 59.1626 59.9146 59.5103 59.1556C60.0865 57.8991 60.6576 56.6376 61.2389 55.3837C61.5663 54.673 62.1806 54.3633 62.8609 54.6552C63.3 54.843 63.597 55.371 63.9219 55.7086Z" fill="white"/>
<path d="M66.3345 43.7101C66.2685 44.6543 66.2305 45.6011 66.1264 46.5403C66.0147 47.5505 65.4487 48.0455 64.6009 47.9643C63.7708 47.8856 63.3825 47.2637 63.4662 46.2281C63.5449 45.2533 63.5957 44.2761 63.6414 43.2988C63.6998 42.0906 64.144 41.4941 64.9968 41.5068C65.8649 41.5195 66.3422 42.2023 66.3345 43.4207C66.3345 43.5197 66.3345 43.6136 66.3345 43.7101Z" fill="white"/>
</svg>
