<svg width="80" height="90" viewBox="0 0 80 90" fill="none" xmlns="http://www.w3.org/2000/svg">
<path d="M22.6555 90C20.9179 89.4435 19.9739 88.2225 19.4291 86.4989C18.4734 83.4651 17.3769 80.4759 16.3366 77.4679C15.9468 76.3384 15.6157 76.113 14.3947 76.1341C10.9969 76.1952 7.59913 76.275 4.199 76.3103C1.64421 76.3361 -0.210833 74.5092 0.0192864 72.093C0.0944274 71.297 0.479523 70.4516 0.94211 69.78C4.29528 64.91 7.69306 60.0704 11.112 55.245C11.5464 54.6321 11.5933 54.2352 11.1542 53.5778C6.72797 46.956 4.77195 39.672 5.40126 31.7094C5.97421 24.4606 8.61354 18.0525 13.2018 12.431C13.4061 12.1821 13.6104 11.9309 13.8358 11.7008C14.3994 11.1255 15.1766 11.0574 15.7214 11.5199C16.2709 11.9849 16.339 12.7598 15.8646 13.4102C14.8455 14.8027 13.7231 16.1294 12.8026 17.5829C8.96811 23.6552 7.42302 30.3263 8.09929 37.4436C9.41426 51.3165 19.7438 62.7356 33.3607 65.5346C50.3919 69.0357 67.409 57.8326 70.8209 40.8742C74.2022 24.0614 63.9126 7.62435 47.3252 3.59961C37.7119 1.2679 28.8218 3.09241 20.7864 8.91349C20.6431 9.01681 20.5069 9.12717 20.3637 9.22814C19.5254 9.82457 18.7881 9.77526 18.2809 9.08725C17.8066 8.44386 17.9968 7.66192 18.7928 7.0561C23.994 3.1018 29.8268 0.755996 36.3453 0.15252C53.3248 -1.4184 68.7827 9.28684 73.0281 25.7451C75.59 35.6754 73.9181 44.9999 68.2731 53.5778C67.8411 54.2329 67.8739 54.625 68.3107 55.2426C71.732 60.0657 75.1063 64.9217 78.5064 69.7589C79.2273 70.7827 79.6452 71.8746 79.3635 73.1356C78.9197 75.1385 77.3769 76.3337 75.2166 76.3103C71.8775 76.2703 68.5385 76.1975 65.197 76.1341C63.7365 76.106 63.504 76.2586 63.0297 77.6323C62.0082 80.5839 60.9281 83.5191 59.9912 86.4989C59.4488 88.2248 58.5025 89.4435 56.7648 89.9977C56.1778 89.9977 55.5931 89.9977 55.0061 89.9977C53.6723 89.5327 52.8035 88.5629 52.0192 87.4311C48.0015 81.6359 43.9204 75.8829 39.9262 70.0736C39.2945 69.1554 38.6183 68.7844 37.5264 68.721C29.9794 68.2772 23.3177 65.5581 17.5459 60.6997C16.0807 59.4646 14.7563 58.0604 13.3545 56.7196C13.2371 56.8769 13.0915 57.0601 12.9576 57.2503C9.68195 61.9231 6.41097 66.6006 3.13294 71.2688C2.76193 71.7971 2.47546 72.3231 2.82063 72.9665C3.16347 73.6028 3.75286 73.6733 4.40095 73.6615C7.79873 73.5911 11.1942 73.5253 14.5919 73.4831C16.7898 73.4549 18.0836 74.373 18.8139 76.4605C19.9223 79.6282 21.0188 82.8006 22.0966 85.98C22.315 86.6257 22.5804 87.2057 23.3153 87.3208C24.0691 87.4382 24.4683 86.9192 24.8534 86.3674C28.1032 81.7134 31.3625 77.064 34.6194 72.417C34.8049 72.154 34.9669 71.8675 35.1923 71.6398C35.6784 71.1514 36.256 71.0175 36.8619 71.4073C37.4935 71.8135 37.6438 72.4123 37.3714 73.0909C37.254 73.3845 37.038 73.6404 36.8548 73.9034C33.7012 78.4119 30.5289 82.9062 27.4011 87.4311C26.6168 88.5653 25.748 89.5351 24.4143 89.9977C23.8272 90 23.2402 90 22.6555 90ZM42.2697 68.768C42.4974 69.1108 42.6383 69.3315 42.7863 69.5429C46.7147 75.155 50.6479 80.7624 54.5716 86.3792C54.9567 86.931 55.363 87.4429 56.1144 87.3208C56.8517 87.1987 57.1053 86.6116 57.3237 85.9682C58.4132 82.7606 59.5169 79.5601 60.6346 76.3643C61.3202 74.4036 62.6704 73.4573 64.7556 73.4831C68.1839 73.5253 71.6099 73.5911 75.0382 73.6615C75.6886 73.6756 76.2756 73.5958 76.6044 72.9477C76.9331 72.2996 76.6396 71.7736 76.2686 71.2476C74.6507 68.9511 73.0422 66.6452 71.4314 64.3441C69.6374 61.7822 67.8387 59.2204 66.0212 56.6257C59.7188 63.8134 51.8619 67.8663 42.2697 68.768Z" fill="white"/>
<path d="M39.6627 60.8971C24.982 60.7985 13.098 48.8511 13.192 34.2902C13.2882 19.5837 25.2967 7.79593 40.0643 7.91099C54.4796 8.0237 66.3683 20.1355 66.2251 34.5579C66.0818 49.1446 54.1297 60.9957 39.6627 60.8971ZM63.5012 34.4005C63.4942 21.2579 52.8664 10.6067 39.7285 10.5785C26.6046 10.548 15.8782 21.3025 15.9182 34.4498C15.9581 47.616 26.5788 58.2085 39.7332 58.1991C52.8805 58.1874 63.5082 47.5479 63.5012 34.4005Z" fill="white"/>
<path d="M53.5045 26.5226C57.0244 26.208 58.8278 29.479 57.7711 31.9375C57.4752 32.6255 56.907 33.2712 56.3105 33.7409C54.6081 35.077 52.8259 36.3121 51.0741 37.5871C50.0104 38.362 49.9376 38.5945 50.3533 39.8813C50.992 41.8537 51.633 43.8238 52.2694 45.7963C52.9175 47.804 52.4549 49.4805 50.952 50.5795C49.461 51.6714 47.6717 51.6127 45.9951 50.4034C44.2387 49.1354 42.4799 47.8697 40.7399 46.5806C40.0237 46.0499 39.378 46.0616 38.6641 46.5923C36.8044 47.9683 34.9541 49.3561 33.0427 50.657C30.7743 52.2044 27.6912 51.0796 27.0079 48.4403C26.8271 47.7429 26.8623 46.907 27.0619 46.2072C27.6771 44.0469 28.4191 41.9242 29.1095 39.785C29.4758 38.6509 29.3748 38.3385 28.4051 37.6271C26.5618 36.2792 24.6973 34.9572 22.8751 33.5835C21.5508 32.5856 21.107 31.1978 21.4522 29.6081C21.7762 28.1288 22.6896 27.1026 24.1713 26.6753C24.6104 26.5485 25.0918 26.525 25.5567 26.5226C27.6654 26.5062 29.7764 26.5179 31.885 26.5156C33.2 26.5132 33.4912 26.2972 33.9021 25.0339C34.5502 23.0356 35.1959 21.035 35.8487 19.0391C36.471 17.1417 37.908 16.024 39.7067 16.0264C41.5078 16.0264 42.9495 17.1417 43.5694 19.0344C44.2246 21.0326 44.8797 23.0286 45.5114 25.0339C45.7344 25.7383 46.0491 26.2808 46.8146 26.5485C47.5824 26.8161 47.8642 27.5441 47.6083 28.2485C47.3711 28.899 46.7183 29.2207 45.9646 29.0305C44.4664 28.6548 43.5553 27.6544 43.0834 26.2268C42.3883 24.1205 41.7449 21.9954 41.0053 19.9055C40.8526 19.4735 40.437 18.9897 40.0237 18.8254C39.2794 18.5272 38.7322 18.9052 38.4411 19.7693C37.7413 21.8451 37.0721 23.9279 36.3864 26.0084C35.6515 28.2415 34.3694 29.1713 32.0236 29.1737C29.8844 29.176 27.7452 29.1878 25.606 29.1666C24.8805 29.1596 24.3122 29.3756 24.0891 30.0895C23.8637 30.8057 24.2253 31.3035 24.8077 31.7191C26.5477 32.9589 28.2689 34.2246 29.9971 35.4832C31.8639 36.8428 32.3617 38.3456 31.6643 40.5341C30.9998 42.6192 30.3423 44.7091 29.6425 46.7825C29.4171 47.4517 29.4876 47.9989 30.0488 48.4262C30.6264 48.8653 31.1876 48.7291 31.7394 48.3229C33.4395 47.0784 35.1513 45.8479 36.8537 44.6034C38.9389 43.0795 40.4699 43.0724 42.5316 44.5799C44.187 45.7892 45.8542 46.9774 47.5026 48.1985C48.0849 48.6305 48.6579 48.9287 49.3342 48.445C50.0433 47.9402 49.9494 47.278 49.7099 46.5571C49.043 44.5635 48.3996 42.5629 47.7585 40.5622C47.0471 38.3456 47.5284 36.8616 49.3882 35.5043C51.1141 34.2457 52.84 32.9824 54.5776 31.7402C55.1834 31.3082 55.5709 30.7939 55.3032 30.0378C55.0519 29.3263 54.4602 29.1291 53.7487 29.169C53.3119 29.1948 52.8681 29.1995 52.4314 29.162C51.7082 29.1009 51.1634 28.4974 51.1728 27.8212C51.1822 27.1331 51.7199 26.586 52.4689 26.5344C52.8517 26.5015 53.2344 26.5226 53.5045 26.5226Z" fill="white"/>
</svg>
